<?xml version="1.0" standalone="no"?>
<!DOCTYPE svg PUBLIC "-//W3C//DTD SVG 20010904//EN"
 "http://www.w3.org/TR/2001/REC-SVG-20010904/DTD/svg10.dtd">
<svg version="1.0" xmlns="http://www.w3.org/2000/svg"
 width="900.000000pt" height="777.000000pt" viewBox="0 0 900.000000 777.000000"
 preserveAspectRatio="xMidYMid meet">
<metadata>
Created by potrace 1.10, written by Peter Selinger 2001-2011
</metadata>
<g transform="translate(0.000000,777.000000) scale(0.100000,-0.100000)"
fill="#000000" stroke="none">
<path d="M4300 7756 c0 -10 -16 -17 -47 -21 -123 -15 -316 -93 -448 -180 -66
-43 -177 -139 -234 -201 -53 -59 -145 -183 -164 -224 -4 -8 -15 -27 -25 -42
-9 -15 -44 -70 -77 -123 -33 -53 -68 -109 -77 -123 -10 -15 -22 -36 -28 -47
-6 -11 -18 -32 -28 -47 -9 -15 -44 -70 -77 -123 -33 -53 -68 -109 -77 -123
-10 -15 -22 -36 -28 -47 -6 -11 -18 -32 -28 -47 -9 -15 -51 -82 -92 -148 -41
-67 -83 -134 -92 -148 -10 -15 -22 -36 -28 -47 -6 -11 -18 -32 -28 -47 -9 -14
-51 -81 -92 -148 -41 -66 -83 -133 -92 -148 -10 -15 -22 -36 -28 -47 -6 -11
-18 -32 -28 -47 -9 -15 -37 -59 -62 -98 -25 -39 -53 -83 -62 -98 -10 -15 -22
-36 -28 -47 -6 -11 -19 -33 -30 -50 -10 -16 -25 -40 -32 -52 -14 -25 -123
-199 -150 -241 -10 -15 -22 -36 -28 -47 -6 -11 -18 -32 -28 -47 -9 -15 -44
-70 -77 -123 -33 -53 -68 -109 -77 -123 -10 -15 -22 -36 -28 -47 -6 -11 -18
-32 -28 -47 -9 -15 -51 -82 -92 -148 -41 -67 -83 -134 -92 -148 -10 -15 -22
-36 -28 -47 -6 -11 -18 -32 -28 -47 -9 -14 -51 -81 -92 -148 -41 -66 -83 -133
-92 -148 -10 -15 -22 -36 -28 -47 -6 -11 -18 -32 -28 -47 -9 -14 -44 -70 -77
-123 -33 -53 -68 -108 -77 -123 -10 -15 -22 -36 -28 -47 -6 -11 -18 -32 -28
-47 -9 -15 -44 -70 -77 -123 -33 -53 -68 -109 -77 -123 -10 -15 -22 -36 -28
-47 -6 -11 -18 -32 -28 -47 -9 -15 -44 -70 -77 -123 -33 -53 -68 -109 -77
-123 -10 -15 -22 -36 -28 -47 -6 -11 -18 -32 -28 -47 -9 -15 -51 -82 -92 -148
-41 -67 -83 -134 -92 -148 -10 -15 -22 -36 -28 -47 -6 -11 -18 -32 -28 -47 -9
-14 -51 -81 -92 -148 -41 -67 -83 -134 -92 -148 -10 -15 -22 -36 -28 -47 -14
-27 -28 -49 -73 -118 -20 -31 -49 -79 -63 -105 -14 -26 -29 -54 -33 -62 -39
-69 -88 -215 -110 -328 -14 -69 -14 -385 0 -454 22 -113 71 -259 110 -328 4
-8 20 -37 35 -65 86 -163 296 -373 459 -459 28 -15 57 -31 65 -35 69 -39 215
-88 328 -110 75 -15 6889 -15 6964 0 113 22 259 71 328 110 8 4 38 20 65 35
163 86 373 296 459 459 15 28 31 57 35 65 38 68 90 221 109 320 5 26 13 44 20
42 9 -1 12 47 12 193 0 146 -3 194 -12 193 -7 -2 -15 16 -20 42 -19 99 -71
252 -109 320 -4 8 -19 36 -33 62 -14 26 -43 74 -63 105 -45 69 -59 91 -73 118
-6 11 -18 32 -28 47 -9 14 -51 81 -92 148 -41 67 -83 134 -92 148 -10 15 -22
36 -28 47 -6 11 -18 32 -28 47 -9 14 -51 81 -92 148 -41 66 -83 133 -92 148
-10 15 -22 36 -28 47 -6 11 -18 32 -28 47 -9 14 -44 70 -77 123 -33 53 -68
108 -77 123 -10 15 -22 36 -28 47 -6 11 -18 32 -28 47 -9 14 -44 70 -77 123
-33 53 -68 108 -77 123 -10 15 -22 36 -28 47 -6 11 -18 32 -28 47 -9 15 -44
70 -77 123 -33 53 -68 109 -77 123 -10 15 -22 36 -28 47 -6 11 -18 32 -28 47
-9 15 -51 82 -92 148 -41 67 -83 134 -92 148 -10 15 -22 36 -28 47 -6 11 -18
32 -28 47 -9 14 -51 81 -92 148 -41 66 -83 133 -92 148 -10 15 -22 36 -28 47
-6 11 -18 32 -28 47 -9 14 -44 70 -77 123 -33 53 -68 108 -77 123 -10 15 -22
36 -28 47 -6 11 -18 32 -28 47 -9 14 -44 70 -77 123 -33 53 -68 108 -77 123
-10 15 -22 36 -28 47 -6 11 -18 32 -28 47 -9 15 -44 70 -77 123 -33 53 -68
109 -77 123 -10 15 -22 36 -28 47 -6 11 -18 32 -28 47 -9 15 -51 82 -92 148
-41 67 -83 134 -92 148 -10 15 -22 36 -28 47 -6 11 -18 32 -28 47 -9 14 -51
81 -92 148 -41 66 -83 133 -92 148 -10 15 -22 36 -28 47 -6 11 -18 32 -28 47
-9 14 -44 70 -77 123 -33 53 -68 108 -77 123 -10 15 -22 36 -28 47 -6 11 -18
32 -28 47 -9 14 -44 70 -77 123 -33 53 -68 108 -77 123 -10 15 -21 34 -25 42
-20 43 -113 168 -171 231 -55 60 -204 181 -277 226 -104 64 -296 135 -397 148
-32 4 -48 11 -48 21 0 12 -31 14 -190 14 -159 0 -190 -2 -190 -14z m222 -1291
c12 -23 141 -233 180 -293 10 -15 22 -36 28 -47 6 -11 18 -32 28 -47 9 -14 51
-81 92 -148 41 -66 83 -133 92 -148 10 -15 22 -36 28 -47 6 -11 18 -32 28 -47
9 -14 51 -81 92 -148 41 -66 83 -133 92 -148 9 -15 23 -37 30 -49 14 -25 123
-199 150 -241 10 -15 22 -36 28 -47 6 -11 18 -32 28 -47 9 -15 44 -70 77 -123
33 -53 68 -109 77 -123 10 -15 22 -36 28 -47 6 -11 18 -32 28 -47 9 -15 51
-82 92 -148 41 -67 83 -134 92 -148 10 -15 22 -36 28 -47 6 -11 18 -32 28 -47
9 -14 51 -81 92 -148 41 -66 83 -133 92 -148 10 -15 22 -36 28 -47 6 -11 18
-32 28 -47 24 -37 164 -263 180 -291 7 -12 21 -34 30 -49 9 -15 51 -81 92
-148 41 -67 83 -133 92 -148 9 -15 23 -37 30 -49 14 -25 123 -199 150 -241 10
-15 22 -36 28 -47 6 -11 18 -32 28 -47 9 -15 51 -82 92 -148 41 -67 83 -134
92 -148 10 -15 22 -36 28 -47 6 -11 18 -32 28 -47 9 -14 51 -81 92 -148 41
-67 83 -134 92 -148 10 -15 22 -36 28 -47 6 -11 18 -32 28 -47 9 -14 51 -81
92 -148 41 -66 83 -133 92 -148 10 -15 22 -36 28 -47 6 -11 18 -32 28 -47 9
-14 44 -70 77 -123 33 -53 68 -108 77 -123 10 -15 22 -36 28 -47 13 -24 27
-46 63 -102 29 -45 33 -63 17 -63 -5 0 -1459 0 -3230 0 -1771 0 -3224 0 -3230
0 -16 0 -12 18 17 63 36 56 50 78 63 102 6 11 18 32 28 47 9 15 44 70 77 123
33 53 68 109 77 123 10 15 22 36 28 47 6 11 18 32 28 47 9 15 51 82 92 148 41
67 83 134 92 148 10 15 22 36 28 47 6 11 18 32 28 47 9 14 51 81 92 148 41 67
83 134 92 148 10 15 22 36 28 47 6 11 18 32 28 47 9 14 51 81 92 148 41 66 83
133 92 148 10 15 22 36 28 47 6 11 18 32 28 47 9 15 37 59 62 98 25 39 53 83
62 98 10 15 22 36 28 47 6 11 18 32 28 47 27 43 166 266 180 291 7 12 21 34
30 49 9 15 51 82 92 148 41 67 83 134 92 148 10 15 22 36 28 47 6 11 18 32 28
47 9 15 51 82 92 148 41 67 83 134 92 148 10 15 22 36 28 47 6 11 18 32 28 47
9 14 51 81 92 148 41 66 83 133 92 148 10 15 22 36 28 47 6 11 18 32 28 47 9
15 37 59 62 98 25 39 53 83 62 98 10 15 22 36 28 47 6 11 19 34 30 50 11 17
24 39 30 50 6 11 39 65 75 120 36 55 70 109 75 120 6 11 18 32 28 47 9 15 51
82 92 148 41 67 83 134 92 148 10 15 22 36 28 47 6 11 18 32 28 47 9 15 51 82
92 148 41 67 83 134 92 148 10 15 22 36 28 47 6 11 18 32 28 47 39 60 168 270
180 293 7 14 22 25 32 25 10 0 25 -11 32 -25z"/>
</g>
</svg>
