<?xml version="1.0" standalone="no"?>
<!DOCTYPE svg PUBLIC "-//W3C//DTD SVG 20010904//EN"
 "http://www.w3.org/TR/2001/REC-SVG-20010904/DTD/svg10.dtd">
<svg version="1.0" xmlns="http://www.w3.org/2000/svg"
 width="300.000000pt" height="219.000000pt" viewBox="0 0 300.000000 219.000000"
 preserveAspectRatio="xMidYMid meet">
<metadata>
Created by potrace 1.10, written by Peter Selinger 2001-2011
</metadata>
<g transform="translate(0.000000,219.000000) scale(0.100000,-0.100000)"
fill="#000000" stroke="none">
<path d="M817 2154 c12 -16 42 -51 68 -79 26 -27 61 -77 78 -110 42 -80 43
-83 19 -62 -11 11 -25 17 -29 14 -5 -3 -38 17 -73 45 -36 28 -95 65 -132 84
-70 35 -199 87 -204 81 -5 -5 95 -188 132 -242 30 -44 44 -85 28 -85 -3 0 -22
13 -42 30 -20 16 -64 42 -97 57 -54 25 -71 27 -175 28 -117 0 -178 -12 -212
-43 -10 -8 -18 -21 -18 -27 0 -26 178 -134 265 -161 23 -7 33 -14 25 -16 -125
-37 -260 -87 -290 -107 -65 -44 -150 -121 -150 -137 0 -19 60 -44 127 -53 47
-7 169 1 221 14 37 9 25 -10 -15 -24 -77 -27 -167 -85 -234 -151 -56 -55 -69
-73 -69 -98 0 -37 25 -57 86 -67 88 -14 285 30 359 80 21 15 35 20 35 12 0 -7
-30 -59 -66 -117 -285 -452 -335 -577 -350 -887 -7 -132 -7 -133 14 -133 21 0
22 5 22 78 0 290 73 494 309 860 96 150 107 176 86 208 -18 28 -35 30 -77 8
-57 -29 -137 -53 -216 -63 -94 -13 -146 -4 -150 25 -4 31 108 130 207 183 91
50 113 74 87 100 -14 13 -36 15 -132 13 -183 -5 -208 8 -131 70 54 45 121 78
226 113 47 15 96 39 109 52 24 24 24 25 6 45 -11 11 -50 36 -88 55 -92 46
-146 83 -146 98 0 15 101 35 172 35 64 0 143 -26 219 -71 75 -45 80 -46 102
-21 26 29 20 64 -23 130 -52 81 -73 122 -65 130 10 10 144 -62 219 -116 82
-60 119 -72 147 -46 27 24 24 43 -16 120 -19 37 -35 69 -35 71 0 20 155 -102
269 -211 142 -137 161 -178 126 -263 -8 -19 -15 -45 -15 -56 0 -20 0 -20 21
-1 51 45 64 143 28 204 -29 49 -211 225 -307 297 -69 52 -169 103 -251 128
l-24 7 20 -28z"/>
<path d="M2355 1924 c-192 -135 -423 -295 -512 -357 -89 -61 -161 -113 -159
-115 3 -2 73 34 158 81 160 88 797 431 905 487 l63 32 -46 56 c-26 32 -49 58
-53 59 -3 1 -163 -108 -356 -243z m365 171 c7 -8 10 -21 7 -28 -6 -15 -366
-212 -373 -204 -3 3 23 25 58 51 161 117 274 195 284 195 6 1 17 -6 24 -14z"/>
<path d="M1013 1674 c39 -107 164 -204 245 -190 l36 5 -46 -47 c-59 -61 -68
-80 -68 -146 0 -54 20 -93 41 -81 15 10 10 -5 -12 -37 -18 -24 -20 -34 -10
-54 10 -23 70 -68 79 -59 2 2 -6 20 -18 39 -19 31 -20 40 -10 71 10 31 9 38
-9 61 -14 18 -21 41 -21 69 0 35 8 53 45 101 25 31 45 61 45 66 0 16 -40 48
-60 48 -59 0 -154 72 -210 161 -18 27 -36 49 -40 49 -4 0 2 -25 13 -56z"/>
<path d="M970 1681 c0 -40 -2 -43 -22 -37 -87 25 -111 14 -122 -56 -10 -60
-61 -108 -115 -108 -31 0 -48 -6 -66 -25 -14 -13 -25 -29 -25 -35 0 -7 -16
-48 -35 -91 -38 -87 -42 -114 -20 -143 32 -43 19 -98 -58 -249 -72 -139 -167
-367 -206 -497 -40 -130 -63 -349 -45 -418 4 -13 14 -22 25 -22 16 0 18 6 12
63 -6 71 11 238 33 324 37 141 136 380 241 578 40 75 48 101 51 156 4 58 1 69
-17 86 l-22 20 30 59 c16 33 37 82 46 109 l16 50 54 0 c46 0 58 4 84 29 35 34
66 106 58 136 -6 24 1 25 39 5 44 -23 95 -30 104 -15 7 11 -21 105 -36 119 -2
2 -4 -15 -4 -38z"/>
<path d="M2840 1620 c-322 -90 -1095 -300 -1107 -300 -7 0 -13 -4 -13 -9 0 -5
20 -5 47 0 42 8 1197 159 1216 159 4 0 7 43 7 95 0 52 -3 95 -7 94 -5 0 -69
-18 -143 -39z m112 -65 c-2 -22 -6 -42 -8 -44 -3 -4 -517 -70 -544 -70 -36 0
28 21 236 80 120 33 233 65 249 69 58 16 70 10 67 -35z"/>
<path d="M1463 1586 c-48 -16 -113 -54 -113 -67 0 -14 25 -11 81 11 29 12 61
20 71 18 17 -3 14 -11 -23 -73 -23 -38 -63 -96 -88 -128 -106 -134 -103 -128
-88 -151 8 -12 38 -29 68 -39 54 -17 154 -84 154 -102 0 -6 -26 -12 -57 -15
-127 -11 -61 -40 90 -40 l107 1 -34 27 c-19 15 -60 48 -90 75 -68 58 -144 97
-188 97 -18 0 -33 1 -33 3 0 1 26 30 58 64 44 47 201 279 220 325 6 13 -88 8
-135 -6z"/>
<path d="M933 1364 c-8 -20 9 -49 28 -49 8 0 15 13 17 33 3 27 0 32 -18 32
-11 0 -23 -7 -27 -16z"/>
<path d="M1710 1184 c0 -5 33 -22 73 -38 39 -16 272 -119 516 -228 244 -109
447 -198 450 -198 7 0 85 150 80 154 -2 2 -170 49 -374 106 -394 108 -699 194
-727 205 -10 4 -18 3 -18 -1z m829 -270 c113 -31 212 -61 218 -66 10 -8 9 -17
-3 -40 -13 -25 -20 -29 -42 -25 -25 4 -399 170 -410 182 -14 14 49 0 237 -51z"/>
<path d="M1015 1088 c-31 -69 -43 -146 -51 -348 -7 -178 -1 -222 39 -281 27
-42 98 -79 150 -79 48 0 87 35 87 80 0 58 17 29 29 -50 13 -86 66 -259 107
-352 19 -40 32 -58 45 -58 16 0 15 9 -16 95 -19 53 -35 99 -35 102 0 4 30 -39
67 -95 60 -92 69 -102 97 -102 l30 0 -26 27 c-60 64 -146 224 -228 425 -49
118 -58 148 -42 148 4 0 22 -21 41 -46 32 -42 108 -104 128 -104 12 0 82 122
111 193 14 35 27 91 30 128 4 57 1 73 -18 107 -23 40 -74 83 -139 117 -31 16
-33 16 -27 0 3 -9 6 -18 6 -20 0 -1 24 -21 54 -44 70 -54 90 -96 83 -173 -7
-82 -87 -248 -119 -248 -5 0 -38 27 -73 60 -35 33 -68 60 -73 60 -5 0 -17 -9
-27 -20 -13 -14 -16 -29 -12 -56 8 -46 -32 -121 -68 -130 -61 -15 -134 41
-156 119 -14 51 3 422 22 477 28 83 46 64 65 -69 15 -111 34 -168 59 -177 32
-13 43 18 70 194 4 24 16 52 27 62 l21 19 -27 11 c-49 18 -47 23 -70 -178 -14
-121 -20 -114 -36 38 -16 144 -25 175 -59 199 -16 12 -32 21 -36 21 -3 0 -17
-24 -30 -52z"/>
</g>
</svg>
