<?xml version="1.0" standalone="no"?>
<!DOCTYPE svg PUBLIC "-//W3C//DTD SVG 20010904//EN"
 "http://www.w3.org/TR/2001/REC-SVG-20010904/DTD/svg10.dtd">
<svg version="1.0" xmlns="http://www.w3.org/2000/svg"
 width="300.000000pt" height="300.000000pt" viewBox="0 0 300.000000 300.000000"
 preserveAspectRatio="xMidYMid meet">
<metadata>
Created by potrace 1.10, written by Peter Selinger 2001-2011
</metadata>
<g transform="translate(0.000000,300.000000) scale(0.100000,-0.100000)"
fill="#000000" stroke="none">
<path d="M860 2475 c-30 -6 -77 -22 -105 -34 -30 -13 -51 -18 -53 -11 -8 23
-60 1 -155 -66 -26 -19 -56 -34 -66 -34 -11 0 -22 -4 -25 -8 -3 -5 -19 -7 -36
-6 -17 1 -43 -4 -58 -12 -15 -8 -33 -14 -40 -14 -7 0 -23 -9 -35 -20 -12 -11
-28 -18 -35 -15 -8 3 -27 -9 -43 -26 -16 -17 -29 -27 -29 -23 0 5 -9 -4 -20
-21 -11 -16 -20 -27 -20 -22 0 4 -11 0 -24 -8 -15 -10 -28 -33 -36 -63 -6 -26
-17 -54 -24 -62 -16 -18 -56 -132 -56 -158 0 -9 14 -58 30 -109 26 -79 37 -99
78 -137 33 -32 56 -46 75 -46 35 0 49 -16 128 -141 33 -54 78 -118 100 -143
41 -46 97 -92 104 -84 2 2 -9 58 -25 123 -35 142 -56 299 -46 338 l7 28 32
-21 c18 -11 61 -38 97 -59 36 -22 94 -65 130 -96 36 -31 101 -79 146 -106 44
-27 121 -89 170 -137 50 -48 105 -100 124 -116 33 -27 35 -33 41 -110 4 -45 2
-89 -2 -98 -12 -22 -110 -96 -182 -137 l-58 -33 -47 17 c-78 28 -114 30 -145
5 -15 -12 -27 -30 -27 -41 0 -19 11 -25 24 -12 3 4 16 8 28 10 12 2 27 8 35
14 23 20 46 2 41 -32 -3 -16 -1 -32 3 -34 12 -8 -2 -45 -17 -45 -7 0 -35 5
-63 11 -50 11 -91 1 -91 -22 0 -6 7 -6 20 1 11 6 20 7 20 1 0 -5 -7 -11 -15
-15 -8 -3 -15 -10 -15 -15 0 -6 6 -8 14 -5 8 3 26 -2 41 -12 22 -15 42 -16
142 -10 64 3 122 11 128 16 16 14 165 -18 189 -41 11 -10 19 -30 18 -48 -1
-38 14 -32 23 8 6 29 -4 58 -48 136 -19 35 -27 41 -66 45 -25 3 -46 10 -48 16
-10 30 200 227 264 248 26 9 83 98 83 129 0 15 1 27 3 27 1 0 17 -4 35 -9 27
-8 36 -7 52 9 19 19 20 19 94 -15 42 -19 108 -44 148 -56 40 -12 109 -41 153
-64 44 -24 117 -62 163 -85 72 -37 102 -61 245 -203 89 -89 189 -181 222 -205
129 -91 194 -131 199 -123 3 4 17 7 31 6 18 -2 23 0 18 9 -9 15 -104 136 -208
265 -107 133 -178 231 -172 238 8 8 312 -146 445 -226 57 -33 110 -61 118 -61
18 0 18 24 -1 60 -8 16 -12 35 -9 43 13 34 -50 109 -133 161 -29 18 -43 33
-43 48 0 34 -44 82 -130 142 -44 31 -80 61 -80 66 0 6 -76 87 -170 182 -132
134 -167 174 -159 185 7 7 22 13 35 13 13 0 25 6 25 13 2 19 5 31 11 47 35 85
28 102 -72 189 -39 33 -64 61 -56 61 9 0 16 5 16 12 0 24 -118 124 -186 157
-38 19 -94 49 -124 67 -30 18 -102 49 -160 69 -167 58 -145 45 -321 191 -50
42 -176 108 -266 140 -59 21 -224 26 -303 9z"/>
</g>
</svg>
