<?xml version="1.0" standalone="no"?>
<!DOCTYPE svg PUBLIC "-//W3C//DTD SVG 20010904//EN"
 "http://www.w3.org/TR/2001/REC-SVG-20010904/DTD/svg10.dtd">
<svg version="1.0" xmlns="http://www.w3.org/2000/svg"
 width="300.000000pt" height="223.000000pt" viewBox="0 0 300.000000 223.000000"
 preserveAspectRatio="xMidYMid meet">
<metadata>
Created by potrace 1.10, written by Peter Selinger 2001-2011
</metadata>
<g transform="translate(0.000000,223.000000) scale(0.100000,-0.100000)"
fill="#000000" stroke="none">
<path d="M1565 1575 c-174 -33 -446 -121 -598 -196 -99 -48 -160 -94 -187
-141 -12 -21 -29 -38 -38 -38 -13 0 -12 4 6 20 38 36 24 90 -24 90 -26 0 -74
-36 -74 -56 0 -11 -6 -13 -20 -9 -28 9 -44 -3 -29 -21 6 -8 18 -14 26 -14 8 0
28 -11 45 -25 16 -14 39 -25 50 -25 15 0 18 -4 13 -17 -3 -10 -11 -38 -17 -63
-9 -42 -7 -52 31 -144 22 -55 38 -103 35 -107 -3 -5 -23 -13 -45 -19 -56 -15
-69 -46 -45 -108 29 -73 30 -90 10 -133 -11 -27 -14 -43 -7 -47 5 -4 13 -19
16 -33 6 -25 42 -49 72 -49 9 0 15 10 15 26 0 22 2 24 15 14 12 -10 16 -9 21
4 3 8 4 21 1 28 -2 7 2 31 10 53 7 21 11 52 8 67 -11 46 1 65 46 72 40 6 121
43 169 76 17 12 55 19 122 24 170 11 263 33 379 86 59 27 128 62 154 78 l48
30 46 -22 c40 -18 64 -21 188 -21 152 0 163 -3 169 -51 3 -31 49 -73 80 -74
11 0 25 -5 30 -10 15 -15 94 -1 94 16 0 7 -5 16 -11 20 -6 3 -18 23 -26 43 -8
20 -24 48 -35 64 -11 15 -16 27 -13 27 4 0 40 -12 80 -26 66 -23 77 -25 104
-13 40 18 79 99 48 99 -8 0 -23 8 -34 18 -40 35 -56 72 -64 157 -8 73 -6 92
10 138 19 49 25 186 10 201 -6 6 -50 -46 -84 -99 l-18 -30 -10 28 c-9 27 -10
27 -27 12 -18 -16 -22 -15 -74 9 -30 14 -119 42 -198 62 -172 43 -340 53 -473
29z m456 -69 c81 -20 171 -47 200 -60 67 -31 125 -35 161 -12 37 24 41 8 18
-64 -34 -108 -9 -254 57 -322 29 -30 25 -58 -8 -58 -12 0 -46 8 -75 17 -88 27
-126 -5 -90 -75 7 -15 17 -38 21 -51 7 -22 5 -23 -21 -17 -34 9 -74 43 -74 64
0 7 -14 27 -30 44 l-31 30 -117 -7 c-104 -6 -124 -5 -179 14 -34 12 -68 21
-76 21 -7 0 -72 -29 -143 -65 -71 -36 -152 -72 -180 -80 -60 -18 -248 -45
-317 -45 -31 0 -58 -7 -75 -19 -44 -31 -125 -68 -163 -75 -57 -10 -78 -41 -89
-129 -10 -84 -23 -117 -44 -117 -22 0 -28 31 -15 81 11 40 10 54 -4 91 -23 59
-21 85 6 99 36 19 67 51 67 71 0 10 -16 59 -35 108 -32 83 -34 94 -25 137 6
26 9 57 6 69 -10 38 99 128 229 190 180 86 456 170 650 198 88 12 234 -2 376
-38z m-1281 -244 c0 -13 -23 -32 -39 -32 -11 0 -10 4 4 20 19 21 35 26 35 12z"/>
</g>
</svg>
