<?xml version="1.0" standalone="no"?>
<!DOCTYPE svg PUBLIC "-//W3C//DTD SVG 20010904//EN"
 "http://www.w3.org/TR/2001/REC-SVG-20010904/DTD/svg10.dtd">
<svg version="1.0" xmlns="http://www.w3.org/2000/svg"
 width="300.000000pt" height="300.000000pt" viewBox="0 0 300.000000 300.000000"
 preserveAspectRatio="xMidYMid meet">
<metadata>
Created by potrace 1.10, written by Peter Selinger 2001-2011
</metadata>
<g transform="translate(0.000000,300.000000) scale(0.100000,-0.100000)"
fill="#000000" stroke="none">
<path d="M363 2973 c-18 -7 -17 -139 2 -293 27 -213 94 -367 208 -481 54 -53
58 -75 22 -127 -14 -20 -25 -47 -25 -59 0 -12 -4 -24 -10 -28 -5 -3 -9 -26 -8
-50 1 -44 -14 -77 -51 -114 -34 -34 -71 -88 -71 -105 0 -9 -8 -19 -17 -22 -60
-19 -76 -31 -98 -68 -32 -55 -55 -153 -43 -188 5 -15 18 -30 29 -33 11 -4 30
-23 43 -43 13 -21 44 -49 72 -64 52 -28 174 -62 261 -73 60 -8 66 -13 70 -70
2 -22 15 -80 30 -129 25 -89 25 -89 7 -148 -16 -53 -16 -70 -5 -179 11 -110
11 -123 -6 -157 -10 -20 -33 -46 -51 -57 -19 -11 -51 -34 -71 -52 -21 -18 -60
-42 -87 -53 -70 -30 -94 -56 -94 -100 0 -37 21 -65 66 -89 35 -17 128 -25 152
-12 18 10 22 9 22 -4 0 -8 7 -15 16 -15 30 0 56 22 74 66 18 40 22 44 55 44
19 0 35 -4 35 -9 0 -21 -33 -138 -46 -163 -36 -70 -16 -80 153 -76 128 4 141
12 124 85 -8 34 -9 63 -1 102 5 29 10 69 10 88 0 29 3 34 18 28 105 -42 300
-44 387 -4 63 28 118 29 175 2 55 -26 116 -43 153 -43 24 0 27 -4 27 -32 0
-18 -11 -55 -25 -83 -29 -60 -32 -101 -7 -114 9 -5 73 -6 147 -2 l130 6 -4 81
c-1 45 2 107 9 138 l12 57 77 38 77 39 24 -49 c12 -27 39 -63 58 -80 31 -27
41 -31 79 -26 41 4 44 3 60 -30 28 -59 93 -83 93 -34 0 19 1 19 37 0 21 -10
44 -19 53 -19 34 0 108 32 131 56 48 51 17 143 -49 144 -31 0 -58 15 -111 62
-27 24 -54 38 -70 38 -18 0 -39 12 -62 36 l-34 35 3 107 c5 184 -34 358 -106
474 -21 33 -24 52 -27 185 -8 236 -14 287 -65 465 -59 212 -189 492 -289 624
l-51 67 6 77 c7 78 -4 120 -29 120 -7 0 -29 -11 -49 -25 -20 -14 -42 -25 -49
-25 -6 0 -28 15 -49 34 -24 21 -66 43 -116 60 -72 24 -93 26 -238 26 l-159 0
-131 -71 c-126 -68 -206 -132 -206 -165 0 -8 -2 -14 -4 -14 -19 0 -100 56
-168 116 -46 41 -129 110 -185 154 -56 44 -119 101 -140 126 -73 87 -88 102
-100 97z m212 -250 c44 -33 118 -96 165 -138 89 -81 171 -135 206 -135 13 0
37 19 62 49 31 37 73 67 164 118 l123 68 151 3 c140 4 155 2 228 -22 43 -15
98 -42 123 -61 52 -39 62 -41 104 -20 43 23 52 11 46 -53 -7 -65 7 -106 58
-168 110 -134 281 -548 314 -759 6 -38 13 -86 16 -105 3 -19 8 -105 12 -190 6
-154 6 -155 44 -230 57 -113 81 -227 85 -399 3 -129 5 -147 25 -176 25 -36 77
-75 100 -75 9 0 41 -20 73 -44 31 -25 71 -48 89 -51 42 -10 57 -22 57 -51 0
-49 -97 -80 -166 -54 -19 8 -30 8 -38 0 -18 -18 -41 -11 -69 25 -24 30 -34 35
-71 35 -47 0 -72 20 -119 97 -38 60 -56 62 -145 17 -98 -50 -113 -77 -120
-215 l-5 -99 -98 0 c-74 0 -99 3 -99 13 0 7 9 38 20 70 25 71 25 88 0 119 -14
18 -34 28 -67 33 -27 4 -75 18 -108 32 -78 33 -132 33 -227 0 -91 -32 -156
-34 -282 -10 l-89 17 -21 -25 c-23 -27 -46 -152 -43 -234 l2 -40 -99 -3 -99
-3 8 23 c4 13 14 55 23 95 19 82 9 118 -33 129 -42 10 -73 -4 -104 -50 l-30
-43 -86 1 c-68 2 -90 6 -112 23 -52 38 -40 72 35 104 24 11 66 36 94 57 152
115 153 116 145 288 -5 102 -3 144 9 190 14 57 14 62 -12 169 -15 60 -31 127
-36 148 -12 49 -35 62 -145 81 -143 24 -196 49 -265 120 -56 58 -59 63 -55
103 7 69 41 125 91 151 31 17 51 38 70 71 14 27 33 55 43 62 31 26 73 103 73
133 0 40 22 109 50 164 30 56 23 76 -55 164 -110 124 -162 260 -186 489 -16
156 -12 165 49 103 26 -27 83 -77 127 -111z"/>
</g>
</svg>
