<?xml version="1.0" standalone="no"?>
<!DOCTYPE svg PUBLIC "-//W3C//DTD SVG 20010904//EN"
 "http://www.w3.org/TR/2001/REC-SVG-20010904/DTD/svg10.dtd">
<svg version="1.0" xmlns="http://www.w3.org/2000/svg"
 width="300.000000pt" height="300.000000pt" viewBox="0 0 300.000000 300.000000"
 preserveAspectRatio="xMidYMid meet">
<metadata>
Created by potrace 1.10, written by Peter Selinger 2001-2011
</metadata>
<g transform="translate(0.000000,300.000000) scale(0.050000,-0.050000)"
fill="#000000" stroke="none">
<path d="M725 5937 c-50 -50 -9 -648 63 -907 71 -259 195 -477 363 -638 100
-96 110 -146 47 -235 -48 -67 -74 -155 -96 -311 -12 -92 -47 -156 -123 -226
-42 -39 -119 -160 -119 -188 0 -18 -16 -38 -35 -45 -118 -37 -151 -60 -195
-135 -106 -181 -120 -413 -28 -443 22 -7 61 -47 88 -88 80 -127 303 -218 680
-276 l100 -15 17 -100 c10 -55 40 -180 68 -278 49 -177 49 -178 14 -295 -32
-105 -33 -144 -13 -345 28 -290 -32 -472 -156 -472 -9 0 -55 -33 -103 -73 -48
-40 -127 -90 -177 -111 -327 -140 -171 -453 204 -409 63 7 96 3 101 -13 19
-55 124 14 170 111 39 81 54 95 104 95 96 0 97 -19 11 -270 -80 -237 -84 -234
264 -225 273 6 304 24 270 156 -24 97 10 439 45 439 12 0 89 -14 171 -32 202
-43 474 -29 607 32 120 54 241 55 355 4 112 -51 232 -84 306 -84 69 0 66 -117
-7 -254 -103 -191 -54 -225 299 -208 l250 12 -7 162 c-4 90 4 214 18 277 l26
114 136 69 c170 85 156 87 222 -30 84 -149 164 -208 265 -197 78 9 85 5 127
-69 63 -108 183 -150 183 -63 0 17 11 26 25 20 166 -69 317 -48 417 59 96 102
34 285 -98 287 -62 1 -116 32 -222 124 -55 48 -108 77 -141 77 -34 0 -76 24
-118 67 l-65 67 -6 298 c-8 400 -69 658 -206 869 -42 64 -47 100 -55 380 -14
451 -20 499 -114 858 -114 436 -385 1040 -585 1299 l-102 132 6 170 c8 241
-16 271 -156 193 -96 -53 -104 -54 -146 -24 -24 18 -75 55 -113 82 -140 102
-302 132 -664 125 l-327 -6 -260 -144 c-263 -144 -325 -192 -374 -288 l-28
-53 -79 38 c-43 20 -151 100 -239 178 -88 77 -265 225 -393 329 -129 103 -259
221 -290 262 -129 168 -156 192 -182 165z"/>
</g>
</svg>
